<?xml version="1.0" encoding="utf-8"?>
<!-- Generator: Adobe Illustrator 22.0.1, SVG Export Plug-In . SVG Version: 6.00 Build 0)  -->
<svg version="1.1" id="Layer_1" xmlns="http://www.w3.org/2000/svg" xmlns:xlink="http://www.w3.org/1999/xlink" x="0px" y="0px"
	 viewBox="0 0 540 252" style="enable-background:new 0 0 540 252;" xml:space="preserve">
<style type="text/css">
	.st0{fill:#00AAB0;}
	.st1{fill:#FFFFFF;}
</style>
<circle class="st0" cx="126" cy="126" r="126"/>
<title>M.Davis Design</title>
<g>
	<path class="st1" d="M105.8,34.6c5.3,0,9.9,0.4,13.9,1.1c4,0.8,7.5,2.1,10.7,3.9c3.1,1.9,6,4.6,8.5,8.1c2.5,3.6,5,8.1,7.4,13.7
		L189,166.7c0.8,2.2,1.8,4.5,2.8,6.7c1,2.3,2.2,4.4,3.6,6.2c1.4,1.9,3,3.4,4.8,4.7c1.9,1.3,4.2,1.9,6.9,1.9c1.9,0,3.3,0.2,4.4,0.5
		c1.1,0.3,1.7,2,1.9,4.8c0,1.4-0.4,2.6-1.1,3.8c-0.8,1.2-1.9,1.8-3.4,1.8c-5.4-0.3-10.2-0.6-14.2-0.6c-4.1-0.1-8.6-0.1-13.7-0.1
		c-10.2,0-20.7,0.3-31.5,0.8c-1.7,0-2.9-0.6-3.6-1.8c-0.7-1.2-1-2.5-1-3.8c0.2-2.9,0.8-4.5,1.9-4.8c1.1-0.3,2.6-0.5,4.5-0.5
		c4.1,0,7.2-0.4,9.4-1.1c2.2-0.8,3.6-1.9,4.2-3.4c0.6-1.5,0.7-3.5,0.3-6s-1.3-5.5-2.7-9l-8.6-21.1H90.7c-4.1,10.3-6.8,17.4-8.1,21.1
		c-1.4,4.4-2.3,7.9-2.8,10.4s-0.3,4.5,0.8,5.8c1,1.4,2.9,2.2,5.7,2.7c2.8,0.4,6.7,0.6,11.6,0.6c1.9,0,3.3,0.2,4.5,0.5
		c1.1,0.3,1.7,2,1.9,4.8c0,1.4-0.4,2.6-1.1,3.8c-0.8,1.2-1.9,1.8-3.4,1.8c-5.4-0.3-10.1-0.6-14.1-0.6c-4-0.1-8.5-0.1-13.6-0.1
		c-2.5,0-4.7,0-6.6,0s-3.7,0-5.5,0.1s-3.6,0.2-5.6,0.3s-4.3,0.2-7,0.4c-1.7,0-2.9-0.6-3.6-1.8c-0.7-1.2-1-2.5-1-3.8
		c0.2-2.9,0.8-4.5,1.9-4.8c1.1-0.3,2.6-0.5,4.4-0.5c3.4,0,6.1-0.5,8.3-1.7c2.1-1.1,3.9-2.6,5.3-4.4c1.4-1.9,2.7-4,3.7-6.4
		s2-4.7,3.1-7.1L114,61.5c1.2-3.1,1.6-5.5,1.3-7.4c-0.3-1.9-1.1-3.4-2.4-4.6c-1.3-1.2-2.9-2.1-4.8-2.7c-2-0.6-3.9-1.1-6-1.4
		c-2.5-0.5-4.2-1-5.1-1.4s-1.3-1.9-1.3-4.5c0-2.9,1-4.5,2.9-4.7C100.4,34.8,102.9,34.6,105.8,34.6z M95.6,134.8H149l-25.7-65.4h-0.8
		L95.6,134.8z"/>
</g>
</svg>
